<mxfile host="app.diagrams.net" modified="2023-10-20T13:50:54.219Z" agent="Mozilla/5.0 (Macintosh; Intel Mac OS X 10_15_7) AppleWebKit/537.36 (KHTML, like Gecko) Chrome/117.0.0.0 Safari/537.36" etag="Qz2xP-z4HcpP4MATiMBX" version="22.0.6" type="device">
  <diagram id="C5RBs43oDa-KdzZeNtuy" name="Page-1">
    <mxGraphModel dx="857" dy="506" grid="1" gridSize="10" guides="1" tooltips="1" connect="1" arrows="1" fold="1" page="1" pageScale="1" pageWidth="827" pageHeight="1169" math="0" shadow="0">
      <root>
        <mxCell id="WIyWlLk6GJQsqaUBKTNV-0" />
        <mxCell id="WIyWlLk6GJQsqaUBKTNV-1" parent="WIyWlLk6GJQsqaUBKTNV-0" />
        <mxCell id="qLrAlUbcbzyxptFshL-Q-7" style="edgeStyle=orthogonalEdgeStyle;rounded=0;orthogonalLoop=1;jettySize=auto;html=1;" edge="1" parent="WIyWlLk6GJQsqaUBKTNV-1" source="qLrAlUbcbzyxptFshL-Q-0" target="qLrAlUbcbzyxptFshL-Q-5">
          <mxGeometry relative="1" as="geometry">
            <mxPoint x="350" y="140" as="targetPoint" />
            <Array as="points">
              <mxPoint x="99" y="140" />
            </Array>
          </mxGeometry>
        </mxCell>
        <mxCell id="qLrAlUbcbzyxptFshL-Q-0" value="" style="sketch=0;outlineConnect=0;fontColor=#232F3E;gradientColor=none;fillColor=#232F3D;strokeColor=none;dashed=0;verticalLabelPosition=bottom;verticalAlign=top;align=center;html=1;fontSize=12;fontStyle=0;aspect=fixed;pointerEvents=1;shape=mxgraph.aws4.client;" vertex="1" parent="WIyWlLk6GJQsqaUBKTNV-1">
          <mxGeometry x="60" y="280" width="78" height="76" as="geometry" />
        </mxCell>
        <mxCell id="qLrAlUbcbzyxptFshL-Q-1" value="" style="endArrow=classic;startArrow=classic;html=1;rounded=0;" edge="1" parent="WIyWlLk6GJQsqaUBKTNV-1">
          <mxGeometry width="50" height="50" relative="1" as="geometry">
            <mxPoint x="150" y="317.5" as="sourcePoint" />
            <mxPoint x="250" y="317.5" as="targetPoint" />
          </mxGeometry>
        </mxCell>
        <mxCell id="qLrAlUbcbzyxptFshL-Q-26" style="edgeStyle=orthogonalEdgeStyle;rounded=0;orthogonalLoop=1;jettySize=auto;html=1;" edge="1" parent="WIyWlLk6GJQsqaUBKTNV-1" source="qLrAlUbcbzyxptFshL-Q-3">
          <mxGeometry relative="1" as="geometry">
            <mxPoint x="430" y="318" as="targetPoint" />
          </mxGeometry>
        </mxCell>
        <mxCell id="qLrAlUbcbzyxptFshL-Q-3" value="{&quot;action&quot;: route}" style="whiteSpace=wrap;html=1;" vertex="1" parent="WIyWlLk6GJQsqaUBKTNV-1">
          <mxGeometry x="270" y="288" width="120" height="60" as="geometry" />
        </mxCell>
        <mxCell id="qLrAlUbcbzyxptFshL-Q-4" value="AWS Lambda" style="sketch=0;outlineConnect=0;fontColor=#232F3E;gradientColor=none;strokeColor=#ffffff;fillColor=#232F3E;dashed=0;verticalLabelPosition=middle;verticalAlign=bottom;align=center;html=1;whiteSpace=wrap;fontSize=10;fontStyle=1;spacing=3;shape=mxgraph.aws4.productIcon;prIcon=mxgraph.aws4.lambda;" vertex="1" parent="WIyWlLk6GJQsqaUBKTNV-1">
          <mxGeometry x="730" y="270" width="80" height="100" as="geometry" />
        </mxCell>
        <mxCell id="qLrAlUbcbzyxptFshL-Q-5" value="" style="outlineConnect=0;dashed=0;verticalLabelPosition=bottom;verticalAlign=top;align=center;html=1;shape=mxgraph.aws3.api_gateway;fillColor=#D9A741;gradientColor=none;" vertex="1" parent="WIyWlLk6GJQsqaUBKTNV-1">
          <mxGeometry x="390" y="120" width="35" height="43" as="geometry" />
        </mxCell>
        <mxCell id="qLrAlUbcbzyxptFshL-Q-12" style="edgeStyle=orthogonalEdgeStyle;rounded=0;orthogonalLoop=1;jettySize=auto;html=1;" edge="1" parent="WIyWlLk6GJQsqaUBKTNV-1" source="qLrAlUbcbzyxptFshL-Q-11" target="qLrAlUbcbzyxptFshL-Q-4">
          <mxGeometry relative="1" as="geometry" />
        </mxCell>
        <mxCell id="qLrAlUbcbzyxptFshL-Q-11" value="Connect" style="text;html=1;strokeColor=none;fillColor=none;align=center;verticalAlign=middle;whiteSpace=wrap;rounded=0;" vertex="1" parent="WIyWlLk6GJQsqaUBKTNV-1">
          <mxGeometry x="435" y="126.5" width="60" height="30" as="geometry" />
        </mxCell>
        <mxCell id="qLrAlUbcbzyxptFshL-Q-15" value="" style="outlineConnect=0;dashed=0;verticalLabelPosition=bottom;verticalAlign=top;align=center;html=1;shape=mxgraph.aws3.api_gateway;fillColor=#D9A741;gradientColor=none;" vertex="1" parent="WIyWlLk6GJQsqaUBKTNV-1">
          <mxGeometry x="390" y="460" width="35" height="43" as="geometry" />
        </mxCell>
        <mxCell id="qLrAlUbcbzyxptFshL-Q-18" style="edgeStyle=orthogonalEdgeStyle;rounded=0;orthogonalLoop=1;jettySize=auto;html=1;" edge="1" parent="WIyWlLk6GJQsqaUBKTNV-1" source="qLrAlUbcbzyxptFshL-Q-16" target="qLrAlUbcbzyxptFshL-Q-4">
          <mxGeometry relative="1" as="geometry" />
        </mxCell>
        <mxCell id="qLrAlUbcbzyxptFshL-Q-16" value="Disconnect" style="text;html=1;strokeColor=none;fillColor=none;align=left;verticalAlign=middle;whiteSpace=wrap;rounded=0;" vertex="1" parent="WIyWlLk6GJQsqaUBKTNV-1">
          <mxGeometry x="435" y="466.5" width="60" height="30" as="geometry" />
        </mxCell>
        <mxCell id="qLrAlUbcbzyxptFshL-Q-17" style="edgeStyle=orthogonalEdgeStyle;rounded=0;orthogonalLoop=1;jettySize=auto;html=1;" edge="1" parent="WIyWlLk6GJQsqaUBKTNV-1" source="qLrAlUbcbzyxptFshL-Q-0" target="qLrAlUbcbzyxptFshL-Q-15">
          <mxGeometry relative="1" as="geometry">
            <Array as="points">
              <mxPoint x="100" y="482" />
            </Array>
          </mxGeometry>
        </mxCell>
        <mxCell id="qLrAlUbcbzyxptFshL-Q-19" value="" style="outlineConnect=0;dashed=0;verticalLabelPosition=bottom;verticalAlign=top;align=center;html=1;shape=mxgraph.aws3.api_gateway;fillColor=#D9A741;gradientColor=none;" vertex="1" parent="WIyWlLk6GJQsqaUBKTNV-1">
          <mxGeometry x="435" y="296.5" width="35" height="43" as="geometry" />
        </mxCell>
        <mxCell id="qLrAlUbcbzyxptFshL-Q-22" style="edgeStyle=orthogonalEdgeStyle;rounded=0;orthogonalLoop=1;jettySize=auto;html=1;exitX=0.5;exitY=1;exitDx=0;exitDy=0;" edge="1" parent="WIyWlLk6GJQsqaUBKTNV-1">
          <mxGeometry relative="1" as="geometry">
            <mxPoint x="500" y="333" as="sourcePoint" />
            <mxPoint x="500" y="333" as="targetPoint" />
          </mxGeometry>
        </mxCell>
        <mxCell id="qLrAlUbcbzyxptFshL-Q-23" value="$log" style="rounded=0;whiteSpace=wrap;html=1;fillColor=#d5e8d4;strokeColor=#82b366;" vertex="1" parent="WIyWlLk6GJQsqaUBKTNV-1">
          <mxGeometry x="480" y="270" width="110" height="20" as="geometry" />
        </mxCell>
        <mxCell id="qLrAlUbcbzyxptFshL-Q-24" value="$log" style="rounded=0;whiteSpace=wrap;html=1;fillColor=#d5e8d4;strokeColor=#82b366;" vertex="1" parent="WIyWlLk6GJQsqaUBKTNV-1">
          <mxGeometry x="480" y="308" width="110" height="20" as="geometry" />
        </mxCell>
        <mxCell id="qLrAlUbcbzyxptFshL-Q-25" value="$log" style="rounded=0;whiteSpace=wrap;html=1;fillColor=#d5e8d4;strokeColor=#82b366;" vertex="1" parent="WIyWlLk6GJQsqaUBKTNV-1">
          <mxGeometry x="480" y="348" width="110" height="20" as="geometry" />
        </mxCell>
      </root>
    </mxGraphModel>
  </diagram>
</mxfile>
